<?xml version="1.0" standalone="no"?>
<svg viewBox="0 0 200 200" xmlns="http://www.w3.org/2000/svg">
  <path fill="#FF0066" d="M37.6,-60.6C50.3,-57.9,63.1,-50.9,66.6,-40C70.1,-29.2,64.4,-14.6,62.1,-1.3C59.8,12,61,23.9,57.2,34.3C53.4,44.8,44.8,53.7,34.4,64C24.1,74.3,12,85.9,-0.6,86.9C-13.2,87.9,-26.4,78.2,-35.9,67.4C-45.4,56.7,-51.3,44.8,-56.5,33.4C-61.6,22,-66.1,11,-64.1,1.1C-62.2,-8.8,-53.8,-17.5,-47.2,-26.4C-40.6,-35.3,-35.7,-44.4,-28.1,-49.9C-20.6,-55.5,-10.3,-57.7,1.1,-59.6C12.5,-61.5,25,-63.2,37.6,-60.6Z" transform="translate(100 100)" />
</svg>
